Coordinates
version=1
nRows=10
nColumns=40
inDegrees=yes

Units are S.I. units (second, meters, Newtons, ...)
If the header above contains a line with 'inDegrees', this indicates whether rotational values are in degrees (yes) or radians (no).

endheader
time	pelvis_tilt	pelvis_list	pelvis_rotation	pelvis_tx	pelvis_ty	pelvis_tz	hip_flexion_r	hip_adduction_r	hip_rotation_r	knee_angle_r	knee_angle_r_beta	ankle_angle_r	subtalar_angle_r	mtp_angle_r	hip_flexion_l	hip_adduction_l	hip_rotation_l	knee_angle_l	knee_angle_l_beta	ankle_angle_l	subtalar_angle_l	mtp_angle_l	lumbar_extension	lumbar_bending	lumbar_rotation	arm_flex_r	arm_add_r	arm_rot_r	elbow_flex_r	pro_sup_r	wrist_flex_r	wrist_dev_r	arm_flex_l	arm_add_l	arm_rot_l	elbow_flex_l	pro_sup_l	wrist_flex_l	wrist_dev_l
      0.00000000	     10.74324570	      6.59930411	    -11.23226005	      0.05041774	      1.31322086	      0.01959870	     20.38790605	    -24.14459760	    -17.17185406	     45.62660664	      0.79633451	    -29.38877608	    -30.86607694	      0.00000000	     68.97001949	    -18.18232482	     -5.29018267	     96.78049596	      1.68913831	     -4.65016147	     -8.62417747	      0.00000000	    -59.29951738	     -2.77610099	    -12.50211815	     55.45355293	    -12.87213815	    -18.97581168	     40.72226571	     88.19750944	      0.00000000	      0.00000000	     61.66754060	     -3.73049210	    -19.68737303	     46.12641596	     87.67165197	      0.00000000	      0.00000000
      0.01700000	     11.11925626	      5.83091017	    -11.64292872	      0.05047187	      1.31418393	      0.01962097	     20.61043005	    -23.55561501	    -16.19795669	     49.27232195	      0.85996425	    -27.31189404	    -31.48601584	      0.00000000	     66.85966039	    -18.16350799	     -6.60304839	     93.21588997	      1.62692420	     -4.30468298	     -9.27955262	      0.00000000	    -59.72473818	     -2.46961345	    -11.96932503	     55.79831736	    -12.72400821	    -18.78146244	     40.49019952	     88.11458892	      0.00000000	      0.00000000	     61.40624084	     -3.78048218	    -20.07251521	     46.41261568	     87.47412140	      0.00000000	      0.00000000
      0.03300000	     11.55632904	      5.44404223	    -12.28557493	      0.05046567	      1.31502805	      0.01982758	     21.06547838	    -23.26669844	    -14.69500337	     52.96869650	      0.92447815	    -25.24726479	    -31.46242618	      0.00000000	     64.49869410	    -18.21656147	     -8.49379488	     89.47172581	      1.56157620	     -4.16621295	    -10.01379802	      0.00000000	    -60.14433588	     -2.61420983	    -11.69273934	     56.18619261	    -12.52990952	    -18.56850126	     40.13902326	     88.17460091	      0.00000000	      0.00000000	     61.13405812	     -3.78220014	    -20.54037295	     46.77675223	     87.50779964	      0.00000000	      0.00000000
      0.05000000	     11.88585493	      4.92203963	    -12.85524957	      0.05047375	      1.31588301	      0.01975611	     21.93837381	    -22.93226311	    -13.22567436	     56.95424189	      0.99403904	    -23.42726364	    -31.30994372	      0.00000000	     61.90921595	    -18.33382116	    -10.22657812	     85.55607007	      1.49323512	     -4.11339985	    -10.40127979	      0.00000000	    -60.50978221	     -2.59748657	    -11.28436527	     56.56989640	    -12.36187886	    -18.38087502	     39.86034756	     88.17978487	      0.00000000	      0.00000000	     60.88560445	     -3.91171595	    -20.95323217	     47.07485124	     87.53293052	      0.00000000	      0.00000000
      0.06700000	     12.20757838	      4.48242419	    -13.71987754	      0.05045042	      1.31676242	      0.01974236	     23.61831462	    -22.73592369	    -11.36263159	     61.57250818	      1.07464300	    -21.50280849	    -31.00596438	      0.00000000	     58.66791119	    -18.75996295	    -12.42549810	     81.29650707	      1.41889172	     -4.12545849	    -10.45580321	      0.00000000	    -60.88546596	     -2.91221333	    -10.86190380	     57.04193382	    -12.03469241	    -18.13716282	     39.55761253	     88.19544590	      0.00000000	      0.00000000	     60.69925529	     -4.11878111	    -21.33152973	     47.30455302	     87.62982250	      0.00000000	      0.00000000
      0.08300000	     12.38557455	      3.72121992	    -14.37973330	      0.05050730	      1.31751627	      0.01954092	     25.55311572	    -22.25878430	     -9.85442689	     66.41919371	      1.15923362	    -19.74435556	    -31.01225217	      0.00000000	     55.30321483	    -19.30188448	    -14.37368394	     76.85683588	      1.34140484	     -4.39217107	    -10.01966457	      0.00000000	    -61.19797477	     -2.88618455	    -10.22125392	     57.47863066	    -11.73110604	    -17.87682742	     39.33892541	     88.23496673	      0.00000000	      0.00000000	     60.54066818	     -4.41999964	    -21.61118758	     47.44516614	     87.61731793	      0.00000000	      0.00000000
      0.10000000	     12.50882952	      3.01269738	    -15.14220345	      0.05045953	      1.31809474	      0.01949615	     27.81507932	    -21.77043582	     -8.19551998	     71.25107294	      1.24356582	    -18.09705023	    -30.84375477	      0.00000000	     51.68427427	    -19.78852844	    -16.40243552	     72.34857475	      1.26272084	     -4.70890369	     -9.33743201	      0.00000000	    -61.42961914	     -2.95559703	     -9.56423910	     57.87156292	    -11.41591558	    -17.59789600	     39.13783968	     88.18546749	      0.00000000	      0.00000000	     60.28994339	     -4.73182335	    -21.93481260	     47.66021095	     87.56296445	      0.00000000	      0.00000000
      0.11700000	     12.54235422	      2.36342026	    -16.05340105	      0.05026241	      1.31836835	      0.01954976	     30.46337002	    -21.24488619	     -6.30693312	     76.03593685	      1.32707745	    -16.62375976	    -30.50742235	      0.00000000	     47.79863215	    -20.17557552	    -18.54342091	     67.75765101	      1.18259410	     -5.00635355	     -8.50034074	      0.00000000	    -61.51058072	     -3.11775875	     -8.86088846	     58.21016828	    -11.08276952	    -17.30093381	     39.00904693	     88.19826976	      0.00000000	      0.00000000	     59.84358512	     -5.04575757	    -22.25025325	     48.03394151	     87.67488507	      0.00000000	      0.00000000
      0.13300000	     12.45703802	      1.77637771	    -17.08057080	      0.04992856	      1.31828593	      0.01975681	     33.54973251	    -20.67801035	     -4.31527210	     80.80683403	      1.41034531	    -15.38470999	    -30.09015973	      0.00000000	     43.73549694	    -20.45480902	    -20.82861379	     63.02788159	      1.10004405	     -5.48319581	     -7.55840745	      0.00000000	    -61.43033716	     -3.38034673	     -8.11159245	     58.53317485	    -10.78815812	    -16.88196343	     38.82987019	     88.19988486	      0.00000000	      0.00000000	     59.34057870	     -5.38105308	    -22.51886775	     48.37905024	     87.68063867	      0.00000000	      0.00000000
      0.15000000	     12.23449275	      1.28872663	    -18.02698749	      0.04956306	      1.31788743	      0.01995391	     36.91814877	    -20.12394594	     -2.44003591	     85.28659550	      1.48853190	    -14.39409716	    -29.69419675	      0.00000000	     39.80123876	    -20.53419391	    -23.15805783	     58.38642187	      1.01903530	     -6.23831040	     -6.52985115	      0.00000000	    -61.21286497	     -3.60480740	     -7.41579356	     58.83502626	    -10.55047608	    -16.41406072	     38.63463929	     88.20273155	      0.00000000	      0.00000000	     58.87398003	     -5.68157884	    -22.77420783	     48.69206652	     87.67274945	      0.00000000	      0.00000000
